<?xml version="1.0" encoding="utf-8"?>
<!-- Generator: Adobe Illustrator 23.1.0, SVG Export Plug-In . SVG Version: 6.00 Build 0)  -->
<svg version="1.1" id="Capa_1" xmlns="http://www.w3.org/2000/svg" xmlns:xlink="http://www.w3.org/1999/xlink" x="0px" y="0px"
	 viewBox="0 0 167.6 62.1" style="enable-background:new 0 0 167.6 62.1;" xml:space="preserve">
<style type="text/css">
	.st0{fill:none;}
</style>
<g>
	<path class="st0" d="M58,44.8h101.2c1.2,0,2.2-1,2.2-2.2V19.2c0-1.2-1-2.2-2.2-2.2H58c2.2,4.1,3.4,8.9,3.4,13.9S60.1,40.6,58,44.8z
		"/>
	<path d="M54.4,11.7C48.9,5.1,40.5,0.9,31.2,1C14.5,1.2,1.3,14.7,1.6,31.4c0.3,16.3,13.5,29.4,29.9,29.4c9.2,0,17.4-4.2,22.9-10.7
		h106.9c3,0,5.4-2.4,5.4-5.4V17.1c0-3-2.4-5.4-5.4-5.4H54.4z M52.1,44.3c-4.4,6.7-12,11.2-20.6,11.2c-13.6,0-24.6-11-24.6-24.6
		s11-24.6,24.6-24.6c8.6,0,16.2,4.5,20.6,11.2c2.5,3.9,4,8.5,4,13.4S54.6,40.4,52.1,44.3z M159.2,44.8H58c2.2-4.1,3.4-8.9,3.4-13.9
		S60.1,21.2,58,17h101.2c1.2,0,2.2,1,2.2,2.2v23.5C161.3,43.8,160.4,44.8,159.2,44.8z"/>
</g>
<path d="M45.8,30.8v-0.5c0-1.5-1.3-2.8-2.8-2.8h-6.5c0.1-0.5,0.5-1.8,1.3-2.7c1-1.1,2.2-4.2,1.5-6.9c-0.7-2.7-2.4-3.8-3.3-3
	c-1,0.8-0.9,4.8-3.1,6.8c-2.1,2-4.5,6.1-5.5,6.6h-1.7v0.5c0-0.9-0.7-1.6-1.6-1.6h-6.5c-0.9,0-1.6,0.7-1.6,1.6v15
	c0,0.9,0.7,1.6,1.6,1.6H24c0.9,0,1.6-0.7,1.6-1.6v0.5h0.9c0,0,1,1.1,4.4,1.1c0.1,0-0.2,0,10.3,0c2.2,0,3.1-2.5,2.4-3.7
	c-0.2-0.3-0.1-0.6,0.1-0.8c0.8-0.8,1.2-2,0.5-2.9c-0.2-0.3-0.1-0.6,0.1-0.9c1.5-1.2,1.4-2.9,0.7-3.7c-0.2-0.3-0.2-0.6,0-0.9
	C45.5,32,45.8,31.4,45.8,30.8z"/>
<polygon points="73.7,24.2 75.9,28.6 80.8,29.3 77.2,32.7 78.1,37.6 73.7,35.3 69.4,37.6 70.2,32.7 66.7,29.3 71.6,28.6 "/>
<polygon points="92.5,24.2 94.6,28.6 99.5,29.3 96,32.7 96.8,37.6 92.5,35.3 88.1,37.6 88.9,32.7 85.4,29.3 90.3,28.6 "/>
<polygon points="111.4,24.2 113.5,28.6 118.4,29.3 114.9,32.7 115.7,37.6 111.4,35.3 107,37.6 107.8,32.7 104.3,29.3 109.2,28.6 "/>
<polygon points="130.1,24.2 132.3,28.6 137.1,29.3 133.6,32.7 134.4,37.6 130.1,35.3 125.7,37.6 126.6,32.7 123,29.3 127.9,28.6 "/>
<polygon points="148.6,24.2 150.8,28.6 155.7,29.3 152.1,32.7 153,37.6 148.6,35.3 144.3,37.6 145.1,32.7 141.6,29.3 146.4,28.6 "/>
</svg>
